<?xml version="1.0" encoding="UTF-8"?>
<!DOCTYPE svg PUBLIC "-//W3C//DTD SVG 1.1//EN" "http://www.w3.org/Graphics/SVG/1.1/DTD/svg11.dtd">
<svg version="1.2" width="148mm" height="210mm" viewBox="0 0 14800 21000" preserveAspectRatio="xMidYMid" fill-rule="evenodd" stroke-width="28.222" stroke-linejoin="round" xmlns="http://www.w3.org/2000/svg" xmlns:ooo="http://xml.openoffice.org/svg/export" xmlns:xlink="http://www.w3.org/1999/xlink" xmlns:presentation="http://sun.com/xmlns/staroffice/presentation" xmlns:smil="http://www.w3.org/2001/SMIL20/" xmlns:anim="urn:oasis:names:tc:opendocument:xmlns:animation:1.0" xml:space="preserve">
 <defs class="ClipPathGroup">
  <clipPath id="presentation_clip_path" clipPathUnits="userSpaceOnUse">
   <rect x="0" y="0" width="14800" height="21000"/>
  </clipPath>
  <clipPath id="presentation_clip_path_shrink" clipPathUnits="userSpaceOnUse">
   <rect x="14" y="21" width="14771" height="20958"/>
  </clipPath>
 </defs>
 <defs class="TextShapeIndex">
  <g ooo:slide="id1" ooo:id-list="id3 id4 id5 id6 id7 id8 id9 id10 id11 id12 id13 id14"/>
 </defs>
 <defs class="EmbeddedBulletChars">
  <g id="bullet-char-template-57356" transform="scale(0.00048828125,-0.00048828125)">
   <path d="M 580,1141 L 1163,571 580,0 -4,571 580,1141 Z"/>
  </g>
  <g id="bullet-char-template-57354" transform="scale(0.00048828125,-0.00048828125)">
   <path d="M 8,1128 L 1137,1128 1137,0 8,0 8,1128 Z"/>
  </g>
  <g id="bullet-char-template-10146" transform="scale(0.00048828125,-0.00048828125)">
   <path d="M 174,0 L 602,739 174,1481 1456,739 174,0 Z M 1358,739 L 309,1346 659,739 1358,739 Z"/>
  </g>
  <g id="bullet-char-template-10132" transform="scale(0.00048828125,-0.00048828125)">
   <path d="M 2015,739 L 1276,0 717,0 1260,543 174,543 174,936 1260,936 717,1481 1274,1481 2015,739 Z"/>
  </g>
  <g id="bullet-char-template-10007" transform="scale(0.00048828125,-0.00048828125)">
   <path d="M 0,-2 C -7,14 -16,27 -25,37 L 356,567 C 262,823 215,952 215,954 215,979 228,992 255,992 264,992 276,990 289,987 310,991 331,999 354,1012 L 381,999 492,748 772,1049 836,1024 860,1049 C 881,1039 901,1025 922,1006 886,937 835,863 770,784 769,783 710,716 594,584 L 774,223 C 774,196 753,168 711,139 L 727,119 C 717,90 699,76 672,76 641,76 570,178 457,381 L 164,-76 C 142,-110 111,-127 72,-127 30,-127 9,-110 8,-76 1,-67 -2,-52 -2,-32 -2,-23 -1,-13 0,-2 Z"/>
  </g>
  <g id="bullet-char-template-10004" transform="scale(0.00048828125,-0.00048828125)">
   <path d="M 285,-33 C 182,-33 111,30 74,156 52,228 41,333 41,471 41,549 55,616 82,672 116,743 169,778 240,778 293,778 328,747 346,684 L 369,508 C 377,444 397,411 428,410 L 1163,1116 C 1174,1127 1196,1133 1229,1133 1271,1133 1292,1118 1292,1087 L 1292,965 C 1292,929 1282,901 1262,881 L 442,47 C 390,-6 338,-33 285,-33 Z"/>
  </g>
  <g id="bullet-char-template-9679" transform="scale(0.00048828125,-0.00048828125)">
   <path d="M 813,0 C 632,0 489,54 383,161 276,268 223,411 223,592 223,773 276,916 383,1023 489,1130 632,1184 813,1184 992,1184 1136,1130 1245,1023 1353,916 1407,772 1407,592 1407,412 1353,268 1245,161 1136,54 992,0 813,0 Z"/>
  </g>
  <g id="bullet-char-template-8226" transform="scale(0.00048828125,-0.00048828125)">
   <path d="M 346,457 C 273,457 209,483 155,535 101,586 74,649 74,723 74,796 101,859 155,911 209,963 273,989 346,989 419,989 480,963 531,910 582,859 608,796 608,723 608,648 583,586 532,535 482,483 420,457 346,457 Z"/>
  </g>
  <g id="bullet-char-template-8211" transform="scale(0.00048828125,-0.00048828125)">
   <path d="M -4,459 L 1135,459 1135,606 -4,606 -4,459 Z"/>
  </g>
  <g id="bullet-char-template-61548" transform="scale(0.00048828125,-0.00048828125)">
   <path d="M 173,740 C 173,903 231,1043 346,1159 462,1274 601,1332 765,1332 928,1332 1067,1274 1183,1159 1299,1043 1357,903 1357,740 1357,577 1299,437 1183,322 1067,206 928,148 765,148 601,148 462,206 346,322 231,437 173,577 173,740 Z"/>
  </g>
 </defs>
 <g>
  <g id="id2" class="Master_Slide">
   <g id="bg-id2" class="Background"/>
   <g id="bo-id2" class="BackgroundObjects"/>
  </g>
 </g>
 <g class="SlideGroup">
  <g>
   <g id="container-id1">
    <g id="id1" class="Slide" clip-path="url(#presentation_clip_path)">
     <g class="Page">
      <g class="com.sun.star.drawing.CustomShape">
       <g id="id3">
        <rect class="BoundingBox" stroke="none" fill="none" x="-1" y="-1" width="14803" height="21003"/>
        <path fill="rgb(114,159,207)" stroke="none" d="M 7400,21000 L 0,21000 0,0 14800,0 14800,21000 7400,21000 Z"/>
        <path fill="none" stroke="rgb(114,159,207)" d="M 7400,21000 L 0,21000 0,0 14800,0 14800,21000 7400,21000 Z"/>
       </g>
      </g>
      <g class="com.sun.star.drawing.CustomShape">
       <g id="id4">
        <rect class="BoundingBox" stroke="none" fill="none" x="6474" y="-2" width="1853" height="1214"/>
        <path fill="rgb(255,0,0)" stroke="none" d="M 7400,1210 L 6475,1210 6475,-1 8325,-1 8325,1210 7400,1210 Z"/>
        <path fill="none" stroke="rgb(255,0,0)" d="M 7400,1210 L 6475,1210 6475,-1 8325,-1 8325,1210 7400,1210 Z"/>
       </g>
      </g>
      <g class="com.sun.star.drawing.CustomShape">
       <g id="id5">
        <rect class="BoundingBox" stroke="none" fill="none" x="6474" y="19787" width="1853" height="1215"/>
        <path fill="rgb(255,0,0)" stroke="none" d="M 7400,21000 L 6475,21000 6475,19788 8325,19788 8325,21000 7400,21000 Z"/>
        <path fill="none" stroke="rgb(255,0,0)" d="M 7400,21000 L 6475,21000 6475,19788 8325,19788 8325,21000 7400,21000 Z"/>
       </g>
      </g>
      <g class="com.sun.star.drawing.CustomShape">
       <g id="id6">
        <rect class="BoundingBox" stroke="none" fill="none" x="-1" y="9692" width="1853" height="1617"/>
        <path fill="rgb(255,0,0)" stroke="none" d="M 925,11307 L 0,11307 0,9693 1850,9693 1850,11307 925,11307 Z"/>
        <path fill="none" stroke="rgb(255,0,0)" d="M 925,11307 L 0,11307 0,9693 1850,9693 1850,11307 925,11307 Z"/>
       </g>
      </g>
      <g class="com.sun.star.drawing.CustomShape">
       <g id="id7">
        <rect class="BoundingBox" stroke="none" fill="none" x="12949" y="9692" width="1853" height="1617"/>
        <path fill="rgb(255,0,0)" stroke="none" d="M 13875,11307 L 12950,11307 12950,9693 14800,9693 14800,11307 13875,11307 Z"/>
        <path fill="none" stroke="rgb(255,0,0)" d="M 13875,11307 L 12950,11307 12950,9693 14800,9693 14800,11307 13875,11307 Z"/>
       </g>
      </g>
      <g class="com.sun.star.drawing.CustomShape">
       <g id="id8">
        <rect class="BoundingBox" stroke="none" fill="none" x="-1" y="3230" width="2315" height="3233"/>
        <path fill="rgb(102,102,102)" stroke="none" d="M 1156,6461 L 0,6461 0,3231 2312,3231 2312,6461 1156,6461 Z"/>
        <path fill="none" stroke="rgb(52,101,164)" d="M 1156,6461 L 0,6461 0,3231 2312,3231 2312,6461 1156,6461 Z"/>
       </g>
      </g>
      <g class="com.sun.star.drawing.CustomShape">
       <g id="id9">
        <rect class="BoundingBox" stroke="none" fill="none" x="-1" y="14538" width="2315" height="3233"/>
        <path fill="rgb(102,102,102)" stroke="none" d="M 1156,17769 L 0,17769 0,14539 2312,14539 2312,17769 1156,17769 Z"/>
        <path fill="none" stroke="rgb(102,102,102)" d="M 1156,17769 L 0,17769 0,14539 2312,14539 2312,17769 1156,17769 Z"/>
       </g>
      </g>
      <g class="com.sun.star.drawing.CustomShape">
       <g id="id10">
        <rect class="BoundingBox" stroke="none" fill="none" x="12485" y="14538" width="2316" height="3233"/>
        <path fill="rgb(102,102,102)" stroke="none" d="M 13643,17769 L 12486,17769 12486,14539 14799,14539 14799,17769 13643,17769 Z"/>
        <path fill="none" stroke="rgb(102,102,102)" d="M 13643,17769 L 12486,17769 12486,14539 14799,14539 14799,17769 13643,17769 Z"/>
       </g>
      </g>
      <g class="com.sun.star.drawing.CustomShape">
       <g id="id11">
        <rect class="BoundingBox" stroke="none" fill="none" x="12485" y="3230" width="2316" height="3233"/>
        <path fill="rgb(102,102,102)" stroke="none" d="M 13643,6461 L 12486,6461 12486,3231 14799,3231 14799,6461 13643,6461 Z"/>
        <path fill="none" stroke="rgb(102,102,102)" d="M 13643,6461 L 12486,6461 12486,3231 14799,3231 14799,6461 13643,6461 Z"/>
       </g>
      </g>
      <g class="com.sun.star.drawing.CustomShape">
       <g id="id12">
        <rect class="BoundingBox" stroke="none" fill="none" x="3700" y="3230" width="7403" height="14541"/>
        <path fill="rgb(42,96,153)" stroke="none" d="M 7401,17769 L 3701,17769 3701,3231 11101,3231 11101,17769 7401,17769 Z"/>
        <path fill="none" stroke="rgb(42,96,153)" d="M 7401,17769 L 3701,17769 3701,3231 11101,3231 11101,17769 7401,17769 Z"/>
       </g>
      </g>
      <g class="com.sun.star.drawing.CustomShape">
       <g id="id13">
        <rect class="BoundingBox" stroke="none" fill="none" x="-2" y="19731" width="6400" height="1271"/>
        <path fill="rgb(255,255,0)" stroke="none" d="M 3198,21000 L -1,21000 -1,19732 6396,19732 6396,21000 3198,21000 Z"/>
        <path fill="none" stroke="rgb(52,101,164)" d="M 3198,21000 L -1,21000 -1,19732 6396,19732 6396,21000 3198,21000 Z"/>
       </g>
      </g>
      <g class="com.sun.star.drawing.CustomShape">
       <g id="id14">
        <rect class="BoundingBox" stroke="none" fill="none" x="8401" y="19731" width="6400" height="1271"/>
        <path fill="rgb(255,255,0)" stroke="none" d="M 11601,21000 L 8402,21000 8402,19732 14799,19732 14799,21000 11601,21000 Z"/>
        <path fill="none" stroke="rgb(52,101,164)" d="M 11601,21000 L 8402,21000 8402,19732 14799,19732 14799,21000 11601,21000 Z"/>
       </g>
      </g>
     </g>
    </g>
   </g>
  </g>
 </g>
</svg>